<svg t="1726147708615" class="icon" viewBox="0 0 1024 1024" version="1.1" xmlns="http://www.w3.org/2000/svg" p-id="1515" width="16" height="16"><path d="M299.287273 93.556364A104.727273 104.727273 0 0 1 403.362909 0h232.727273a104.727273 104.727273 0 0 1 104.122182 93.556364c35.514182 0.744727 66.234182 2.56 92.439272 7.400727 35.281455 6.516364 65.303273 18.804364 89.739637 43.287273 28.020364 27.973818 40.075636 63.301818 45.707636 105.192727 5.445818 40.308364 5.445818 91.648 5.445818 155.275636v284.392728c0 63.627636 0 114.967273-5.445818 155.322181-5.585455 41.890909-17.687273 77.172364-45.707636 105.192728-28.020364 28.020364-63.301818 40.029091-105.192728 45.707636-40.354909 5.399273-91.648 5.399273-155.275636 5.399273h-284.392727c-63.674182 0-114.967273 0-155.322182-5.399273-41.890909-5.678545-77.172364-17.687273-105.192727-45.707636-28.020364-28.020364-40.029091-63.301818-45.707637-105.192728-5.399273-40.354909-5.399273-91.694545-5.399272-155.322181v-284.392728c0-63.627636 0-114.967273 5.399272-155.322182 5.632-41.890909 17.687273-77.172364 45.707637-105.192727 24.436364-24.436364 54.458182-36.770909 89.739636-43.240727 26.205091-4.840727 56.925091-6.656 92.439273-7.400727z m69.213091 34.490181v23.226182c0 19.269818 15.592727 34.909091 34.909091 34.909091h232.727272a34.909091 34.909091 0 0 0 34.909091-34.909091v-23.133091-23.412363a34.909091 34.909091 0 0 0-34.909091-34.909091h-232.727272a34.909091 34.909091 0 0 0-34.909091 34.909091v23.319272z m371.665454 35.374546A104.727273 104.727273 0 0 1 636.136727 256h-232.727272a104.727273 104.727273 0 0 1-104.029091-92.625455c-33.466182 0.744727-59.205818 2.420364-79.965091 6.237091-26.391273 4.840727-41.658182 12.660364-52.968728 23.970909-12.893091 12.893091-21.317818 30.952727-25.879272 65.163637-4.747636 35.095273-4.794182 81.733818-4.794182 148.526545v279.272728c0 66.792727 0.046545 113.384727 4.794182 148.57309 4.561455 34.164364 12.986182 52.224 25.879272 65.117091 12.846545 12.893091 30.952727 21.271273 65.117091 25.879273 35.141818 4.701091 81.733818 4.794182 148.573091 4.794182h279.272728c66.792727 0 113.384727-0.093091 148.57309-4.794182 34.117818-4.608 52.224-13.032727 65.117091-25.879273 12.846545-12.893091 21.271273-30.952727 25.879273-65.163636 4.701091-35.141818 4.794182-81.733818 4.794182-148.526545v-279.272728c0-66.792727-0.093091-113.431273-4.794182-148.573091-4.654545-34.164364-13.032727-52.224-25.879273-65.117091-11.357091-11.310545-26.624-19.083636-53.015272-23.970909-20.759273-3.816727-46.545455-5.492364-79.918546-6.190545zM252.136727 616.727273a34.909091 34.909091 0 0 1 34.909091-34.909091h372.363637a34.909091 34.909091 0 0 1 0 69.818182h-372.363637a34.909091 34.909091 0 0 1-34.909091-34.909091z m0 162.909091a34.909091 34.909091 0 0 1 34.909091-34.909091h256a34.909091 34.909091 0 0 1 0 69.818182h-256a34.909091 34.909091 0 0 1-34.909091-34.909091z" fill="#1C274C" p-id="1516"></path></svg>