<svg t="1726149320726" class="icon" viewBox="0 0 1024 1024" version="1.1" xmlns="http://www.w3.org/2000/svg" p-id="1750" width="16" height="16"><path d="M291.514182 93.556364A104.727273 104.727273 0 0 1 395.636364 0h232.727272a104.727273 104.727273 0 0 1 104.122182 93.556364c35.514182 0.744727 66.234182 2.56 92.485818 7.400727 35.281455 6.516364 65.303273 18.804364 89.739637 43.287273 28.020364 27.973818 40.029091 63.301818 45.661091 105.192727 5.445818 40.308364 5.445818 91.648 5.445818 155.275636v284.392728c0 63.627636 0 114.967273-5.445818 155.322181-5.585455 41.890909-17.687273 77.172364-45.661091 105.192728-28.020364 28.020364-63.301818 40.029091-105.192728 45.707636-40.354909 5.399273-91.694545 5.399273-155.322181 5.399273h-284.392728c-63.627636 0-114.967273 0-155.322181-5.399273-41.890909-5.678545-77.172364-17.687273-105.192728-45.707636-28.020364-28.020364-40.029091-63.301818-45.661091-105.192728-5.445818-40.354909-5.445818-91.694545-5.445818-155.322181v-284.392728c0-63.627636 0-114.967273 5.445818-155.322182 5.585455-41.890909 17.687273-77.172364 45.661091-105.192727 24.436364-24.436364 54.458182-36.770909 89.739637-43.240727 26.251636-4.840727 56.971636-6.656 92.485818-7.400727z m0.093091 69.818181c-33.419636 0.744727-59.205818 2.420364-79.965091 6.237091-26.344727 4.840727-41.658182 12.660364-52.968727 23.970909-12.893091 12.893091-21.271273 30.952727-25.879273 65.163637-4.701091 35.095273-4.794182 81.733818-4.794182 148.526545v279.272728c0 66.792727 0.093091 113.384727 4.794182 148.57309 4.608 34.164364 13.032727 52.224 25.879273 65.117091 12.893091 12.893091 30.952727 21.271273 65.163636 25.879273C258.885818 930.816 305.524364 930.909091 372.363636 930.909091h279.272728c66.792727 0 113.384727-0.093091 148.573091-4.794182 34.164364-4.608 52.224-13.032727 65.11709-25.879273 12.893091-12.893091 21.271273-30.952727 25.879273-65.163636 4.701091-35.141818 4.794182-81.733818 4.794182-148.526545v-279.272728c0-66.792727-0.093091-113.431273-4.794182-148.573091-4.608-34.164364-13.032727-52.224-25.879273-65.117091-11.357091-11.310545-26.624-19.083636-52.968727-23.970909-20.759273-3.816727-46.545455-5.492364-79.965091-6.190545A104.727273 104.727273 0 0 1 628.363636 256h-232.727272a104.727273 104.727273 0 0 1-104.029091-92.625455zM395.636364 69.818182a34.909091 34.909091 0 0 0-34.909091 34.909091v46.545454c0 19.269818 15.639273 34.909091 34.909091 34.909091h232.727272a34.909091 34.909091 0 0 0 34.909091-34.909091v-46.545454a34.909091 34.909091 0 0 0-34.909091-34.909091h-232.727272zM244.363636 430.545455A34.909091 34.909091 0 0 1 279.272727 395.636364h23.272728a34.909091 34.909091 0 0 1 0 69.818181H279.272727a34.909091 34.909091 0 0 1-34.909091-34.90909z m162.909091 0a34.909091 34.909091 0 0 1 34.909091-34.909091H744.727273a34.909091 34.909091 0 0 1 0 69.818181H442.181818a34.909091 34.909091 0 0 1-34.909091-34.90909z m-162.909091 162.90909A34.909091 34.909091 0 0 1 279.272727 558.545455h23.272728a34.909091 34.909091 0 0 1 0 69.818181H279.272727a34.909091 34.909091 0 0 1-34.909091-34.909091z m162.909091 0A34.909091 34.909091 0 0 1 442.181818 558.545455H744.727273a34.909091 34.909091 0 0 1 0 69.818181H442.181818a34.909091 34.909091 0 0 1-34.909091-34.909091z m-162.909091 162.909091A34.909091 34.909091 0 0 1 279.272727 721.454545h23.272728a34.909091 34.909091 0 0 1 0 69.818182H279.272727a34.909091 34.909091 0 0 1-34.909091-34.909091z m162.909091 0a34.909091 34.909091 0 0 1 34.909091-34.909091H744.727273a34.909091 34.909091 0 0 1 0 69.818182H442.181818a34.909091 34.909091 0 0 1-34.909091-34.909091z" fill="#d4237a" p-id="1751" data-spm-anchor-id="a313x.collections_detail.0.i15.4b3d3a81IjT0Ez"></path></svg>