<svg height="1024" node-id="1" sillyvg="true" template-height="1024" template-width="1024" version="1.1" viewBox="0 0 1024 1024" width="1024" xmlns="http://www.w3.org/2000/svg" xmlns:xlink="http://www.w3.org/1999/xlink"><defs node-id="58"><linearGradient gradientUnits="objectBoundingBox" id="linearGradient-3" node-id="6" spreadMethod="pad" x1="1.1591349" x2="0.5" y1="-0.337185" y2="0.6488408"><stop offset="0" stop-color="#6cadff"/><stop offset="1" stop-color="#ffffff" stop-opacity="0"/></linearGradient><linearGradient gradientUnits="objectBoundingBox" id="linearGradient-4" node-id="9" spreadMethod="pad" x1="0.10503183" x2="0.70498055" y1="-0.20569195" y2="1"><stop offset="0" stop-color="#6cadff"/><stop offset="1" stop-color="#ffffff" stop-opacity="0"/></linearGradient><linearGradient gradientUnits="objectBoundingBox" id="linearGradient-5" node-id="12" spreadMethod="pad" x1="1.0019176" x2="0.38801584" y1="-0.97780454" y2="1.0473608"><stop offset="0" stop-color="#6cadff"/><stop offset="1" stop-color="#ffffff"/></linearGradient><linearGradient gradientUnits="objectBoundingBox" id="linearGradient-6" node-id="15" spreadMethod="pad" x1="0.5" x2="0.5" y1="-0.27901396" y2="1"><stop offset="0" stop-color="#6cadff"/><stop offset="1" stop-color="#ffffff" stop-opacity="0"/></linearGradient><linearGradient gradientUnits="objectBoundingBox" id="linearGradient-7" node-id="18" spreadMethod="pad" x1="0.5" x2="0.5" y1="-0.27901396" y2="1"><stop offset="0" stop-color="#6cadff"/><stop offset="1" stop-color="#ffffff" stop-opacity="0"/></linearGradient><linearGradient gradientUnits="objectBoundingBox" id="linearGradient-8" node-id="21" spreadMethod="pad" x1="0.5" x2="0.5" y1="-2.211569" y2="1"><stop offset="0" stop-color="#d2d2d2"/><stop offset="1" stop-color="#d2d2d2" stop-opacity="0"/></linearGradient><linearGradient gradientUnits="objectBoundingBox" id="linearGradient-9" node-id="24" spreadMethod="pad" x1="0.39668256" x2="0.69211096" y1="0.73991174" y2="0.5"><stop offset="0" stop-color="#64adff"/><stop offset="1" stop-color="#64adff"/></linearGradient><linearGradient gradientUnits="objectBoundingBox" id="linearGradient-12" node-id="28" spreadMethod="pad" x1="0.6071154" x2="0.3171541" y1="0.5" y2="0.83525485"><stop offset="0" stop-color="#9cc5ff"/><stop offset="1" stop-color="#ffffff"/></linearGradient><mask height="660.895" id="mask-2" maskUnits="userSpaceOnUse" node-id="33" width="1228.7999" x="1972.2421" y="2697.8337"><path d="M 2096.80 2514.90 L 3076.50 2514.90 L 3079.40 2515.10 L 3085.00 2516.60 L 3089.90 2519.50 L 3092.20 2521.40 L 3094.10 2523.60 L 3097.00 2528.60 L 3097.90 2531.30 L 3098.40 2534.10 L 3098.60 2537.00 L 3098.60 3516.80 L 3098.40 3519.70 L 3097.90 3522.50 L 3097.00 3525.20 L 3094.10 3530.20 L 3092.20 3532.40 L 3087.60 3535.90 L 3082.20 3538.10 L 3079.40 3538.70 L 2096.80 3538.90 L 2093.90 3538.70 L 2091.00 3538.10 L 2088.30 3537.20 L 2083.30 3534.30 L 2081.10 3532.40 L 2079.20 3530.20 L 2076.30 3525.20 L 2074.80 3519.70 L 2074.60 3516.80 L 2074.60 2537.00 L 2074.90 2534.00 L 2076.40 2528.40 L 2077.70 2525.90 L 2079.90 2522.80 L 2082.50 2520.10 L 2085.60 2517.90 L 2088.20 2516.60 L 2093.70 2515.10 L 2096.80 2514.90 Z" fill="#ffffff" fill-rule="evenodd" node-id="111" stroke="none" target-height="1024" target-width="1024" target-x="2074.6" target-y="2514.9"/></mask><mask height="216.55496" id="mask-11" maskUnits="userSpaceOnUse" node-id="53" width="130.93228" x="-16.880579" y="-36.349236"><path d="M 42.50 5.80 L 0.50 123.50 L 0.00 127.30 L 1.00 130.80 L 3.30 133.60 L 6.70 135.20 L 20.20 137.80 L 34.20 139.40 L 48.80 140.00 L 63.40 139.50 L 78.80 137.90 L 94.90 135.10 L 98.40 133.40 L 100.70 130.70 L 101.80 127.10 L 101.20 123.30 L 58.50 5.70 L 56.40 2.50 L 53.70 0.60 L 50.40 0.00 L 47.20 0.60 L 44.40 2.50 L 42.50 5.80" fill="#ffffff" fill-rule="evenodd" node-id="118" stroke="none" target-height="140" target-width="101.8" target-x="0" target-y="0"/></mask></defs><g node-id="120"><g node-id="122"><g node-id="123"><g node-id="124"><g node-id="126"><path d="M 755.00 736.10 L 751.90 727.40 L 749.80 717.60 L 749.00 707.50 L 749.40 697.40 L 750.60 690.70 L 752.40 684.40 L 754.90 678.60 L 758.30 673.20 L 762.40 668.50 L 767.40 664.50 L 769.50 666.10 L 770.90 668.10 L 771.60 670.50 L 771.60 673.10 L 769.60 689.30 L 769.40 701.80 L 770.10 707.30 L 771.50 710.40 L 772.80 711.50 L 774.60 711.40 L 777.40 709.80 L 781.60 705.30 L 788.60 694.90 L 814.40 649.50 L 821.60 638.70 L 829.60 628.30 L 836.30 621.50 L 842.80 616.40 L 849.00 612.90 L 855.70 610.50 L 861.70 609.50 L 867.20 609.70 L 872.40 611.10 L 876.80 613.60 L 880.30 617.30 L 882.90 621.80 L 884.40 627.30 L 884.70 634.40 L 883.70 641.30 L 881.10 649.60 L 876.50 659.50 L 863.00 681.20 L 858.60 689.00 L 854.80 696.70 L 851.90 704.30 L 850.80 710.10 L 851.00 713.60 L 852.30 715.90 L 854.70 717.40 L 857.80 717.70 L 860.90 717.10 L 867.60 714.60 L 881.30 708.40 L 887.90 706.30 L 892.40 705.60 L 896.70 705.90 L 901.10 707.20 L 904.50 709.40 L 907.30 712.10 L 909.40 715.40 L 911.50 721.00 L 912.60 727.40 L 912.60 733.90 L 911.80 740.20 L 909.10 749.40 L 904.70 758.70 L 898.80 767.40 L 891.40 775.20 L 885.80 779.60 L 879.80 783.30 L 873.10 786.10 L 866.20 788.00 L 858.80 788.80 L 850.80 788.40 L 838.10 786.10 L 823.80 782.40 L 809.50 777.50 L 795.40 771.50 L 786.30 766.70 L 778.10 761.50 L 770.80 756.00 L 764.10 749.70 L 758.90 743.20 L 755.10 736.40 Z" fill="url(#linearGradient-3)" fill-rule="nonzero" group-id="1,3,4,5,7" id="路径" node-id="40" stroke="none" target-height="179.29999" target-width="163.59998" target-x="749" target-y="609.5"/><path d="M 202.50 678.50 L 194.30 674.10 L 186.20 668.20 L 178.80 661.30 L 172.30 653.50 L 167.10 644.80 L 163.80 635.80 L 162.60 629.60 L 162.60 623.40 L 163.60 617.10 L 166.20 616.90 L 168.60 617.40 L 170.70 618.60 L 172.40 620.60 L 181.90 633.90 L 190.10 643.30 L 194.30 646.90 L 197.40 648.30 L 199.10 648.20 L 200.40 646.90 L 201.40 643.90 L 201.50 637.70 L 199.70 625.30 L 188.30 574.50 L 186.30 561.60 L 185.40 548.50 L 185.80 538.90 L 187.20 530.80 L 189.50 524.10 L 192.80 517.80 L 196.60 513.00 L 200.80 509.50 L 205.70 507.10 L 210.60 506.10 L 215.70 506.30 L 220.50 507.90 L 225.40 511.10 L 230.30 516.10 L 234.20 521.90 L 237.90 529.80 L 241.10 540.20 L 245.60 565.40 L 247.60 574.10 L 250.00 582.40 L 252.90 589.90 L 256.00 595.00 L 258.50 597.40 L 261.00 598.20 L 263.80 597.80 L 266.30 595.90 L 268.10 593.30 L 271.50 586.90 L 277.50 573.20 L 280.90 567.20 L 283.80 563.80 L 287.20 561.20 L 291.30 559.30 L 295.40 558.50 L 299.20 558.70 L 303.00 559.70 L 308.40 562.40 L 313.40 566.50 L 317.80 571.30 L 321.40 576.50 L 325.20 583.60 L 329.30 592.80 L 332.90 602.80 L 336.00 613.60 L 338.20 624.80 L 339.10 635.70 L 338.90 642.90 L 338.00 649.50 L 336.30 655.60 L 333.60 661.30 L 330.00 666.20 L 325.20 670.30 L 319.60 673.60 L 312.90 676.70 L 305.00 679.40 L 292.60 682.60 L 278.90 684.80 L 264.70 686.20 L 250.60 686.60 L 236.60 686.00 L 223.90 684.50 L 212.00 682.00 L 202.70 678.70 Z" fill="url(#linearGradient-4)" fill-rule="nonzero" group-id="1,3,4,5,7" id="路径" node-id="41" stroke="none" target-height="180.49997" target-width="176.5" target-x="162.6" target-y="506.1"/><path d="M 811.10 522.50 L 807.30 527.90 L 804.10 534.00 L 801.90 540.40 L 800.80 546.90 L 800.90 553.60 L 802.60 560.20 L 804.80 564.10 L 813.10 572.50 L 814.80 576.10 L 815.40 581.60 L 814.20 587.70 L 812.10 593.50 L 809.20 599.00 L 803.00 608.80 L 796.00 618.00 L 788.20 626.50 L 792.70 631.10 L 795.70 636.50 L 797.30 642.60 L 797.30 649.00 L 795.80 655.20 L 793.30 661.10 L 790.00 666.50 L 785.80 671.30 L 782.70 674.20 L 778.90 676.30 L 775.00 676.70 L 771.10 676.30 L 758.50 673.50 L 746.30 669.60 L 734.50 664.60 L 729.10 661.70 L 724.20 658.30 L 720.10 654.00 L 717.40 648.90 L 716.60 644.70 L 716.80 641.80 L 717.80 639.70 L 720.40 637.10 L 728.90 631.90 L 731.70 628.80 L 733.80 624.10 L 735.10 619.00 L 736.70 608.60 L 738.50 590.80 L 740.00 585.10 L 741.80 581.90 L 744.30 579.40 L 747.90 577.60 L 762.30 574.90 L 766.90 572.80 L 770.70 569.80 L 773.80 566.10 L 777.50 559.70 L 785.20 542.70 L 787.30 538.90 L 789.80 535.60 L 792.90 532.90 L 796.90 530.50 L 808.80 524.40 L 811.10 522.50 Z M 781.60 579.70 L 777.80 584.50 L 768.70 597.30 L 763.50 605.90 L 758.00 616.00 L 753.20 626.80 L 749.30 638.40 L 747.40 646.30 L 746.30 654.20 L 746.00 662.10 L 757.90 662.10 L 758.90 654.10 L 762.50 633.90 L 765.50 621.30 L 769.70 607.20 L 775.00 593.20 L 781.60 579.70 Z" fill="url(#linearGradient-5)" fill-rule="nonzero" group-id="1,3,4,5,7" id="形状结合" node-id="42" stroke="none" target-height="154.20001" target-width="98.80005" target-x="716.6" target-y="522.5"/><path d="M 287.80 298.80 L 287.10 292.30 L 285.00 286.40 L 281.60 281.20 L 277.10 276.90 L 271.70 273.80 L 265.50 271.90 L 259.00 271.60 L 252.90 272.70 L 247.20 275.20 L 242.20 279.00 L 238.30 283.80 L 235.40 289.60 L 229.40 290.40 L 223.90 292.60 L 219.20 296.10 L 215.50 300.90 L 213.20 306.60 L 212.50 312.40 L 213.40 318.30 L 215.90 323.80 L 219.70 328.50 L 224.50 331.90 L 230.10 333.90 L 236.10 334.50 L 285.60 334.50 L 290.20 333.80 L 294.20 332.10 L 297.70 329.50 L 300.50 326.10 L 302.30 322.20 L 303.30 317.70 L 302.90 313.00 L 301.60 308.90 L 299.20 305.20 L 296.10 302.10 L 292.30 300.00 Z" fill="url(#linearGradient-6)" fill-rule="nonzero" group-id="1,3,4,5,7" id="路径" node-id="43" stroke="none" target-height="62.899994" target-width="90.79999" target-x="212.5" target-y="271.6"/><path d="M 492.10 271.70 L 491.70 266.10 L 490.50 261.10 L 488.50 256.30 L 484.20 249.90 L 478.60 244.70 L 474.30 241.90 L 469.50 239.90 L 464.20 238.50 L 458.80 238.00 L 453.60 238.40 L 448.60 239.50 L 441.60 242.60 L 435.40 247.20 L 431.90 251.00 L 429.10 255.40 L 426.90 260.30 L 421.80 260.90 L 417.10 262.20 L 412.80 264.40 L 408.90 267.20 L 405.60 270.60 L 402.90 274.60 L 400.80 279.00 L 399.70 283.70 L 399.20 288.80 L 399.80 293.90 L 401.10 298.60 L 403.30 302.90 L 406.20 306.80 L 409.60 310.10 L 413.50 312.80 L 417.90 314.80 L 422.60 316.00 L 427.80 316.40 L 489.20 316.40 L 494.90 315.70 L 500.10 313.60 L 504.50 310.30 L 508.00 306.10 L 510.50 301.10 L 511.60 295.40 L 511.20 289.70 L 509.40 284.40 L 506.40 279.80 L 502.40 276.00 L 497.60 273.30 L 492.00 271.90 Z" fill="url(#linearGradient-7)" fill-rule="nonzero" group-id="1,3,4,5,7" id="路径" node-id="44" stroke="none" target-height="78.399994" target-width="112.399994" target-x="399.2" target-y="238"/></g><path d="M 1024.00 788.40 L 999.60 772.40 L 973.80 757.20 L 946.70 742.60 L 918.00 728.80 L 889.20 716.20 L 859.10 704.50 L 827.80 693.70 L 795.30 683.70 L 762.70 675.00 L 729.10 667.40 L 694.50 660.70 L 658.90 655.20 L 623.30 650.90 L 587.00 647.80 L 549.90 645.90 L 512.00 645.20 L 474.10 645.90 L 437.00 647.80 L 400.60 650.90 L 365.10 655.20 L 329.50 660.70 L 294.90 667.40 L 261.30 675.00 L 228.70 683.70 L 196.20 693.70 L 164.90 704.50 L 134.80 716.20 L 105.90 728.80 L 77.30 742.60 L 50.20 757.20 L 24.40 772.40 L 0.00 788.40 Z" fill="url(#linearGradient-8)" fill-rule="nonzero" group-id="1,3,4,5" id="路径" node-id="45" stroke="none" target-height="143.20001" target-width="1024" target-x="0" target-y="645.2"/></g><path d="M 621.80 592.00 L 624.30 585.70 L 626.90 577.20 L 628.50 570.70 L 630.00 560.20 L 630.20 551.30 L 629.50 540.60 L 627.60 530.80 L 624.70 521.80 L 620.60 513.40 L 615.40 505.70 L 609.50 498.90 L 602.70 493.20 L 595.10 488.30 L 549.80 463.90 L 557.50 468.80 L 564.20 474.50 L 570.20 481.30 L 575.40 489.00 L 579.40 497.30 L 582.40 506.40 L 584.30 516.20 L 585.00 527.00 L 585.00 532.90 L 584.30 540.10 L 582.70 548.70 L 579.80 558.90 L 576.10 568.20 L 572.70 575.00 L 570.00 579.80 L 564.10 588.40 L 559.40 593.90 L 552.00 601.20 L 543.80 607.60 L 537.50 611.50 L 531.00 614.80 L 525.00 617.40 L 519.40 619.20 L 513.60 620.70 L 508.50 621.60 L 502.10 622.20 L 493.50 622.20 L 487.30 621.50 L 481.50 620.40 L 474.10 618.00 L 467.10 614.80 L 512.40 639.20 L 521.10 643.10 L 526.80 644.80 L 532.60 645.90 L 538.80 646.60 L 547.40 646.60 L 553.80 646.00 L 558.90 645.10 L 565.40 643.40 L 576.40 639.30 L 581.90 636.50 L 588.10 632.80 L 593.20 628.90 L 600.80 622.30 L 605.10 617.80 L 608.30 613.80 L 615.00 604.20 L 621.10 592.60 Z" fill="#64adff" fill-rule="nonzero" group-id="1,3,4" id="路径" node-id="46" stroke="none" target-height="182.69998" target-width="163.1" target-x="467.1" target-y="463.9"/><path d="M 567.50 351.30 L 577.90 354.60 L 591.60 360.40 L 641.20 386.90 L 628.70 381.00 L 621.90 378.30 L 611.60 374.80 L 609.00 374.80 L 607.20 375.30 L 605.50 376.40 L 604.00 377.80 L 596.70 386.70 L 589.50 393.90 L 581.90 399.80 L 576.40 403.40 L 571.20 406.10 L 561.50 409.70 L 553.10 411.40 L 548.10 411.90 L 541.40 411.90 L 538.00 411.60 L 531.60 410.40 L 526.90 409.00 L 521.50 406.70 L 493.20 391.50 L 443.30 430.30 L 445.70 482.20 L 430.40 513.60 L 424.90 522.20 L 418.30 529.90 L 410.60 536.80 L 401.80 543.00 L 389.20 549.70 L 386.70 551.80 L 384.70 554.30 L 386.60 624.60 L 400.10 631.10 L 410.30 636.50 L 417.60 641.00 L 422.80 644.80 L 426.20 647.80 L 428.20 650.30 L 433.90 658.90 L 438.50 667.50 L 440.60 672.80 L 442.30 678.40 L 443.60 684.60 L 443.90 688.60 L 443.70 694.30 L 442.80 702.20 L 441.00 712.90 L 440.40 723.80 L 443.90 725.80 L 446.30 729.10 L 458.80 736.30 L 468.00 743.20 L 453.30 737.30 L 447.10 734.30 L 436.90 728.80 L 409.40 712.40 L 399.50 705.00 L 394.70 700.90 L 397.00 689.10 L 398.10 678.90 L 398.10 669.50 L 397.00 660.20 L 394.70 651.20 L 391.30 642.50 L 386.90 634.60 L 383.60 630.20 L 344.30 608.70 L 342.50 607.20 L 341.20 605.30 L 340.50 603.20 L 340.00 566.40 L 340.10 532.00 L 340.80 530.10 L 342.80 527.70 L 345.30 525.50 L 357.80 518.80 L 366.60 512.70 L 374.30 505.70 L 380.90 498.00 L 386.50 489.40 L 391.10 480.10 L 394.70 469.70 L 397.30 458.30 L 398.20 449.00 L 397.90 439.50 L 394.70 416.10 L 395.00 412.50 L 396.40 409.30 L 399.40 406.10 L 447.80 367.40 L 450.00 365.90 L 452.60 365.10 L 454.50 365.10 L 456.30 365.80 L 497.10 388.20 L 504.10 388.20 L 509.00 387.80 L 517.40 386.00 L 523.10 384.10 L 532.60 379.50 L 541.80 373.40 L 545.20 370.60 L 553.00 362.80 L 559.90 354.20 L 561.80 352.50 L 563.10 351.70 L 564.80 351.30 L 567.50 351.30 Z" fill="#64adff" fill-rule="nonzero" group-id="1,3,4" id="形状结合" node-id="47" stroke="none" target-height="391.90002" target-width="301.2" target-x="340" target-y="351.3"/><path d="M 721.60 507.20 L 723.40 524.50 L 724.10 542.00 L 723.70 553.70 L 722.40 565.60 L 720.30 577.60 L 718.60 581.40 L 716.20 584.40 L 713.00 587.00 L 704.60 591.60 L 696.90 597.20 L 689.80 603.60 L 683.50 610.80 L 678.00 618.60 L 673.30 626.90 L 669.50 635.70 L 666.80 644.70 L 665.00 654.10 L 664.30 663.50 L 664.70 672.90 L 666.80 686.20 L 666.30 690.00 L 664.80 693.50 L 662.20 696.50 L 650.60 707.90 L 638.20 718.40 L 625.10 727.90 L 611.10 736.40 L 608.50 737.70 L 605.70 738.50 L 602.90 738.30 L 600.50 737.40 L 591.90 730.60 L 585.00 726.60 L 577.50 723.70 L 569.70 722.00 L 561.70 721.50 L 553.50 722.10 L 544.80 724.00 L 536.60 727.00 L 528.70 730.90 L 521.40 735.80 L 514.80 741.50 L 506.40 750.90 L 503.50 752.90 L 500.10 754.20 L 497.30 754.20 L 494.50 753.60 L 480.90 749.20 L 467.80 743.40 L 455.30 736.30 L 443.60 727.90 L 441.30 725.20 L 439.30 722.10 L 441.50 711.20 L 442.50 701.00 L 442.50 691.60 L 441.40 682.20 L 439.10 673.20 L 435.70 664.50 L 430.70 655.80 L 425.00 648.50 L 418.60 642.60 L 411.30 637.80 L 403.00 634.40 L 389.70 631.30 L 387.00 629.70 L 385.30 627.10 L 384.60 623.10 L 384.20 588.90 L 384.30 554.60 L 385.00 552.80 L 387.00 550.30 L 389.60 548.20 L 402.20 541.50 L 411.00 535.40 L 418.80 528.50 L 425.40 520.80 L 431.00 512.30 L 435.60 503.00 L 439.30 492.70 L 441.90 481.40 L 442.80 472.10 L 442.40 462.70 L 439.20 439.50 L 439.50 435.90 L 440.90 432.70 L 444.00 429.50 L 494.90 389.50 L 497.50 388.60 L 500.20 388.90 L 502.50 390.00 L 511.20 398.40 L 518.60 403.60 L 526.80 407.50 L 535.60 410.00 L 544.60 411.00 L 554.00 410.50 L 562.80 408.60 L 571.60 405.30 L 580.30 400.50 L 588.40 394.60 L 596.10 387.20 L 606.20 375.10 L 610.00 373.30 L 612.30 373.40 L 614.50 373.90 L 628.50 379.00 L 641.70 385.30 L 654.20 392.90 L 666.20 401.70 L 668.50 404.70 L 669.00 407.50 L 665.30 425.50 L 664.60 436.70 L 665.40 447.60 L 667.80 458.20 L 671.50 467.90 L 676.50 476.80 L 682.90 484.80 L 690.30 491.30 L 698.90 496.50 L 702.80 497.90 L 714.90 501.20 L 719.10 503.70 L 720.80 505.40 L 721.60 507.20 Z M 553.20 645.00 L 563.50 642.80 L 573.30 639.30 L 582.60 634.40 L 591.20 628.40 L 599.10 621.50 L 606.40 613.50 L 612.60 604.70 L 617.90 595.20 L 622.30 585.00 L 625.40 574.40 L 627.40 563.30 L 628.00 551.80 L 627.30 540.90 L 625.30 530.90 L 622.20 521.70 L 617.70 513.00 L 612.40 505.40 L 606.00 498.70 L 598.80 493.00 L 590.90 488.50 L 582.10 485.10 L 573.00 483.00 L 563.20 482.20 L 550.80 483.20 L 540.70 485.40 L 531.20 488.90 L 522.00 493.90 L 513.50 499.90 L 505.70 506.90 L 498.60 515.00 L 492.40 523.80 L 487.20 533.10 L 483.00 543.00 L 479.90 553.30 L 478.00 563.70 L 477.40 574.30 L 478.20 585.60 L 480.30 595.80 L 483.50 605.30 L 488.00 614.10 L 493.30 622.00 L 499.70 628.80 L 506.90 634.70 L 514.90 639.30 L 523.60 642.80 L 532.80 645.00 L 542.60 645.70 L 553.10 645.00" fill="#9cc5ff" fill-rule="nonzero" group-id="1,3,4" id="形状" node-id="48" stroke="none" target-height="380.90002" target-width="339.89996" target-x="384.2" target-y="373.3"/><path d="M 762.80 730.70 L 762.20 728.20 L 760.60 725.70 L 757.50 723.10 L 752.60 720.30 L 745.80 717.60 L 737.00 715.10 L 725.80 712.90 L 708.50 710.90 L 688.20 710.10 L 667.80 710.90 L 650.50 712.90 L 639.30 715.10 L 630.50 717.60 L 623.70 720.30 L 618.80 723.10 L 615.70 725.70 L 614.10 728.20 L 613.50 730.70 L 613.50 733.60 L 614.10 736.10 L 615.70 738.60 L 618.80 741.20 L 623.70 744.00 L 630.50 746.70 L 639.30 749.20 L 650.50 751.40 L 667.80 753.50 L 688.20 754.20 L 708.50 753.50 L 725.80 751.40 L 737.00 749.20 L 745.80 746.70 L 752.60 744.00 L 757.50 741.20 L 760.60 738.60 L 762.20 736.10 L 762.80 733.60 Z" fill="#64adff" fill-rule="nonzero" group-id="1,3,4" id="Fill-1" node-id="49" stroke="none" target-height="44.100037" target-width="149.29999" target-x="613.5" target-y="710.1"/><path d="M 760.00 730.80 L 759.00 734.20 L 756.10 737.60 L 750.40 741.20 L 744.00 743.90 L 735.70 746.40 L 725.10 748.70 L 708.70 750.70 L 689.50 751.50 L 670.30 750.70 L 654.00 748.70 L 643.40 746.40 L 635.10 743.90 L 628.70 741.20 L 622.90 737.60 L 620.00 734.20 L 619.10 730.80 L 620.00 727.40 L 622.90 724.00 L 628.70 720.30 L 635.10 717.60 L 643.40 715.10 L 654.00 712.90 L 670.30 710.90 L 689.50 710.10 L 708.70 710.90 L 725.10 712.90 L 735.70 715.10 L 744.00 717.60 L 750.40 720.30 L 756.10 724.00 L 759.00 727.40 L 760.00 730.80" fill="#9cc5ff" fill-rule="nonzero" group-id="1,3,4" id="Fill-1" node-id="50" stroke="none" target-height="41.400024" target-width="140.90002" target-x="619.1" target-y="710.1"/><path d="M 679.80 606.10 L 637.90 723.80 L 637.40 727.60 L 638.40 731.10 L 640.70 733.90 L 644.00 735.50 L 657.50 738.10 L 671.60 739.70 L 686.20 740.30 L 700.80 739.80 L 716.10 738.20 L 732.30 735.30 L 735.70 733.70 L 738.10 730.90 L 739.10 727.40 L 738.60 723.60 L 695.80 606.00 L 693.80 602.70 L 691.00 600.90 L 687.80 600.30 L 684.50 600.90 L 681.80 602.80 L 679.80 606.10" fill="url(#linearGradient-9)" fill-rule="nonzero" group-id="1,3,4" id="path-12" node-id="51" stroke="none" target-height="140" target-width="101.69995" target-x="637.4" target-y="600.3"/><g node-id="125"><g node-id="128"><path d="M 726.50 679.10 L 740.50 689.20 L 733.20 698.80 L 724.10 708.60 L 712.90 718.60 L 699.20 728.80 L 683.00 739.30 L 663.60 750.10 L 638.20 762.40 L 631.40 746.20 L 656.70 733.90 L 677.40 722.20 L 694.20 711.00 L 707.50 700.30 L 717.80 690.10 L 726.50 679.10 Z M 726.50 626.20 L 740.50 636.20 L 733.20 645.80 L 724.10 655.60 L 712.90 665.60 L 699.20 675.80 L 683.00 686.30 L 663.60 697.10 L 638.20 709.40 L 631.40 693.30 L 656.70 681.00 L 677.40 669.20 L 694.20 658.00 L 707.50 647.30 L 717.80 637.10 L 726.50 626.20 Z M 726.50 582.00 L 740.50 592.10 L 733.20 601.60 L 724.10 611.40 L 712.90 621.40 L 699.20 631.70 L 683.00 642.20 L 663.60 653.00 L 638.20 665.30 L 631.40 649.10 L 656.70 636.80 L 677.40 625.00 L 694.20 613.80 L 707.50 603.20 L 717.80 593.00 L 726.50 582.00 Z" fill="url(#linearGradient-12)" fill-rule="nonzero" group-id="1,3,4,6,9" id="形状" node-id="56" stroke="none" target-height="180.40002" target-width="109.099976" target-x="631.4" target-y="582"/></g></g></g></g></g></svg>